<svg xmlns="http://www.w3.org/2000/svg" width="92.553" height="117.127" viewBox="0 0 92.553 117.127"><defs><style>.a{fill:#01acea;}</style></defs><g transform="translate(-219.323 85.829)"><path class="a" d="M219.323,31.3V-65.337h11.19V-75.63h11.323v-10.2h70.04V10.8H300.763V21.1H289.434V31.3Zm65.852-92.45H223.5v88.4h61.679ZM300.617,6.625h7.167V-81.79H246.206v6.138h54.41ZM234.766-65.294H289.4V16.965h7.058V-71.5h-61.7Z" transform="translate(0)"/><path class="a" d="M288.494,21.145H243.436V-23.879h45.058Zm-40.963-41.04V8.775c3.719-2.851,7.13-5.4,10.455-8.051A2.551,2.551,0,0,1,261.38.452c3.515,2.09,7.148,3.983,10.757,5.967,3.936-3.662,7.716-7.161,11.464-10.694a2.524,2.524,0,0,0,.905-1.451c.068-4.691.041-9.384.041-14.169Zm36.886,37V.564c-3.457,3.2-6.66,6.006-9.666,9.009-1.443,1.442-2.537,1.786-4.374.592-2.8-1.819-5.856-3.231-8.734-4.935a2.4,2.4,0,0,0-3.189.226c-3,2.428-6.055,4.805-9.2,7.046-1.69,1.2-2.355,2.54-1.62,4.6Z" transform="translate(-11.676 -29.998)"/><path class="a" d="M288.585,74.128v3.7H243.468v-3.7Z" transform="translate(-11.692 -77.456)"/><path class="a" d="M288.49,95.83H243.552V92.036H288.49Z" transform="translate(-11.732 -86.128)"/><path class="a" d="M265.836,113.867h-21.7v-3.836h21.7Z" transform="translate(-12.017 -94.842)"/><path class="a" d="M299.494,2.07a6.139,6.139,0,1,1-12.275-.26,6.139,6.139,0,0,1,12.275.26Zm-3.238-.132C294.969.988,294.123-.1,293.506.019c-.829.158-1.48,1.246-2.208,1.934.732.683,1.391,1.766,2.219,1.917C294.138,3.982,294.976,2.894,296.255,1.938Z" transform="translate(-32.876 -39.53)"/></g></svg>