<svg xmlns="http://www.w3.org/2000/svg" width="88.189" height="88.177" viewBox="0 0 88.189 88.177"><defs><style>.a{fill:#01acea;}</style></defs><g transform="translate(63.192 63.925)"><path class="a" d="M25-62.547V16.672c-.291.083-.244.368-.3.563a9.241,9.241,0,0,1-9.176,7.01q-34.615.014-69.23,0a9.265,9.265,0,0,1-9.476-9.469q-.02-28.153,0-56.306c0-1.462.624-2.067,2.115-2.071,1.607,0,3.215-.028,4.822.014.547.014.659-.148.653-.668-.027-2.783-.017-5.567-.011-8.351a1.761,1.761,0,0,1,2-2.015c1.607-.009,3.216-.044,4.821.017.685.026.784-.207.773-.814-.038-2.066.031-4.134-.033-6.2a2.275,2.275,0,0,1,1.224-2.307H23.619A2.122,2.122,0,0,1,25-62.547ZM-46.674,20.8h.946q30.485,0,60.969,0c3.883,0,6.31-2.445,6.31-6.358q0-37.025.016-74.049c0-.686-.117-.9-.862-.9q-32.207.036-64.414,0c-.814,0-.9.26-.894.954q.03,17.522.014,35.044a8,8,0,0,1-.014.86,1.726,1.726,0,0,1-1.747,1.564,1.729,1.729,0,0,1-1.67-1.555,7,7,0,0,1-.013-.774q0-5.683,0-11.365c0-4.879-.015-9.759.018-14.638,0-.66-.171-.829-.8-.782a14.05,14.05,0,0,1-2.409,0c-.809-.081-.958.219-.957.976q.032,31.342.017,62.683c0,.287.015.576-.01.861a1.727,1.727,0,0,1-1.691,1.624A1.726,1.726,0,0,1-55.6,13.277c-.02-.286-.007-.574-.007-.861q0-20.794,0-41.588c0-3.444-.011-6.888.012-10.332,0-.515-.1-.7-.651-.67a17.99,17.99,0,0,1-2.581,0c-.744-.061-.935.145-.934.915q.039,26.821.021,53.642c0,.316-.006.632.012.947A5.891,5.891,0,0,0-54.1,20.8a5.844,5.844,0,0,0,6.063-5.906c.02-7.52.007-15.039.008-22.559a6.407,6.407,0,0,1,.02-.86,1.728,1.728,0,0,1,1.64-1.492,1.731,1.731,0,0,1,1.758,1.455,5.562,5.562,0,0,1,.025.859c0,7.175-.032,14.351.018,21.526A10.526,10.526,0,0,1-46.674,20.8Z" transform="translate(0)"/><path class="a" d="M66.746,1.3H40.919c-1.815,0-2.334-.528-2.334-2.371q0-5.681,0-11.362c0-1.486.611-2.109,2.075-2.109q26.171,0,52.341,0c1.466,0,2.074.622,2.075,2.11q.006,5.81,0,11.62C95.077.7,94.462,1.3,92.916,1.3Q79.831,1.3,66.746,1.3Zm.175-12.4c-8.037,0-16.075.008-24.112-.016-.639,0-.807.141-.8.79.043,2.5.035,4.994,0,7.49-.007.561.141.7.7.7q24.111-.024,48.223,0c.557,0,.714-.134.706-.7-.033-2.468-.045-4.937.005-7.4.015-.717-.165-.884-.881-.882C82.822-11.09,74.871-11.1,66.92-11.1Z" transform="translate(-78.35 -38.014)"/><path class="a" d="M38.586,93.485q0-8.048,0-16.1c0-1.545.6-2.15,2.121-2.15q12.87,0,25.739,0c1.483,0,2.107.614,2.107,2.079q0,16.182,0,32.363c0,1.425-.629,2.064-2.035,2.064q-12.956.006-25.911,0c-1.394,0-2.019-.649-2.02-2.079Q38.582,101.575,38.586,93.485Zm3.445.009c0,4.678.014,9.356-.017,14.034,0,.644.151.794.793.792q10.764-.039,21.528,0c.645,0,.793-.152.792-.793q-.035-14.034,0-28.068c0-.644-.151-.794-.793-.792q-10.764.039-21.528,0c-.645,0-.8.152-.792.793C42.045,84.137,42.031,88.815,42.031,93.494Z" transform="translate(-78.351 -107.131)"/><path class="a" d="M66.824,258.245H41c-.258,0-.518.013-.774-.01a1.716,1.716,0,0,1-.032-3.424,5.9,5.9,0,0,1,.6-.01H92.874a5.613,5.613,0,0,1,.688.015,1.715,1.715,0,0,1,.032,3.407,6.4,6.4,0,0,1-.859.02Z" transform="translate(-78.369 -245.362)"/><path class="a" d="M200.605,75.236q4.387,0,8.775,0c1.3,0,2.1.69,2.077,1.759-.024,1.039-.8,1.683-2.067,1.683q-8.775,0-17.549,0c-1.3,0-2.1-.689-2.076-1.76.023-1.04.8-1.68,2.066-1.682Q196.218,75.23,200.605,75.236Z" transform="translate(-194.732 -107.129)"/><path class="a" d="M200.611,111.149q4.387,0,8.775,0c1.267,0,2.045.64,2.071,1.678.026,1.071-.778,1.763-2.073,1.764q-8.775,0-17.549,0c-1.295,0-2.1-.694-2.071-1.766.026-1.039.8-1.675,2.072-1.677Q196.223,111.145,200.611,111.149Z" transform="translate(-194.732 -134.776)"/><path class="a" d="M200.556,150.509c-2.954,0-5.907.007-8.861,0a1.738,1.738,0,0,1-1.93-1.732,1.759,1.759,0,0,1,1.955-1.709h.172q8.732,0,17.463,0c1.314,0,2.111.665,2.1,1.733s-.8,1.708-2.128,1.709Q204.943,150.513,200.556,150.509Z" transform="translate(-194.734 -162.425)"/><path class="a" d="M200.541,186.421q-4.344,0-8.689,0c-1.307,0-2.1-.676-2.088-1.749.016-1.041.8-1.693,2.055-1.694q8.775,0,17.549,0c1.314,0,2.106.67,2.088,1.747-.017,1.041-.8,1.693-2.056,1.7Q204.972,186.427,200.541,186.421Z" transform="translate(-194.733 -190.071)"/><path class="a" d="M200.613,218.89q4.387,0,8.775,0c1.266,0,2.044.641,2.069,1.68.025,1.07-.779,1.761-2.075,1.762q-8.775,0-17.549,0c-1.266,0-2.043-.641-2.069-1.682-.026-1.071.777-1.759,2.074-1.761Q196.226,218.885,200.613,218.89Z" transform="translate(-194.732 -217.718)"/><path class="a" d="M6.521,138.3a1.708,1.708,0,1,1-1.688-1.7A1.713,1.713,0,0,1,6.521,138.3Z" transform="translate(-51.038 -154.369)"/></g></svg>