<svg xmlns="http://www.w3.org/2000/svg" width="83.099" height="83.082" viewBox="0 0 83.099 83.082"><defs><style>.a{fill:#01acea;}</style></defs><g transform="translate(63.2 57.539)"><path class="a" d="M19.9-52.509V20.512c-.052.054-.131.1-.153.163-1.16,3.442-3.132,4.867-6.743,4.867q-34.756,0-69.513,0c-4.075,0-6.685-2.611-6.685-6.686q0-35.075,0-70.15a6.219,6.219,0,0,1,1.992-4.6,8.671,8.671,0,0,1,3.043-1.641H14.868c.021.132.12.14.229.166a6.031,6.031,0,0,1,4.323,3.651C19.6-53.324,19.74-52.914,19.9-52.509Zm-41.461,14.35q-18.985,0-37.971-.018c-.754,0-.915.2-.914.93q.031,27.987.016,55.974,0,4.056,4.011,4.051H13.112q4.022,0,4.022-4.041,0-27.987.022-55.974c0-.825-.25-.94-.991-.939Q-2.7-38.14-21.562-38.159Zm-.061-2.775q18.947,0,37.893.018c.723,0,.886-.18.876-.886-.043-3.028-.014-6.057-.02-9.086a3.559,3.559,0,0,0-3.869-3.88q-34.891,0-69.782,0a3.568,3.568,0,0,0-3.9,3.931c0,3,.028,6-.021,9.005-.012.755.2.915.928.914Q-40.57-40.952-21.623-40.934Z" transform="translate(0)"/><path class="a" d="M-14.6,178.627H.08c1.5,0,1.942.427,1.943,1.913q0,9.166,0,18.331c0,1.51-.426,1.937-1.919,1.937H-29.263c-1.514,0-1.933-.414-1.934-1.913q0-9.165,0-18.331c0-1.548.4-1.938,1.991-1.938Zm0,19.414c4.381,0,8.762-.01,13.143.013.562,0,.725-.142.723-.714q-.033-7.625,0-15.249c0-.591-.194-.7-.738-.7q-13.1.024-26.2,0c-.612,0-.762.152-.759.76q.039,7.584,0,15.168c0,.633.19.746.774.742C-23.314,198.03-18.96,198.041-14.606,198.041Z" transform="translate(-25.061 -184.945)"/><path class="a" d="M-14.6,51.052q7.341,0,14.682,0c1.564,0,1.944.386,1.945,1.974q0,9.083,0,18.167c0,1.627-.372,2-2,2h-29.2c-1.652,0-2.015-.354-2.015-1.972q0-9.124,0-18.248c0-1.536.378-1.915,1.912-1.916Q-21.942,51.05-14.6,51.052Zm0,19.37c4.38,0,8.76-.01,13.141.013.55,0,.722-.11.719-.7q-.038-7.583,0-15.166c0-.59-.119-.764-.743-.763q-13.1.035-26.2,0c-.595,0-.762.126-.758.744q.043,7.583,0,15.166c0,.557.122.717.7.714C-23.358,70.409-18.977,70.421-14.6,70.421Z" transform="translate(-25.063 -85.039)"/><path class="a" d="M149.388,242.577c2.19,0,4.38,0,6.569,0,1.317,0,1.769.442,1.777,1.732q.016,2.432,0,4.865c-.01,1.226-.5,1.708-1.736,1.709q-6.569.008-13.138,0c-1.237,0-1.736-.5-1.741-1.711q-.01-2.473,0-4.946c.006-1.14.488-1.64,1.619-1.647C144.954,242.568,147.171,242.577,149.388,242.577Zm0,5.543h3.562c2.031,0,2.009,0,2.027-2.068,0-.558-.128-.724-.7-.717-2.752.032-5.5,0-8.256.021-.691,0-1.634-.312-2,.14-.349.427-.078,1.337-.14,2.029-.049.546.2.609.658.6C146.148,248.106,147.768,248.12,149.386,248.12Z" transform="translate(-160 -235.023)"/><path class="a" d="M149.43,123.161c-2.19,0-4.379,0-6.569,0-1.248,0-1.734-.474-1.739-1.693q-.01-2.473,0-4.946c.006-1.136.5-1.649,1.621-1.65q6.691-.009,13.381,0c1.093,0,1.595.483,1.608,1.573q.03,2.594,0,5.189a1.365,1.365,0,0,1-1.569,1.526C153.918,123.168,151.674,123.161,149.43,123.161Zm-.011-5.529c-1.189,0-2.379-.018-3.567.007-.638.013-1.508-.294-1.851.133-.321.4-.064,1.238-.126,1.876-.057.589.1.774.734.765,2.756-.039,5.513-.01,8.27-.022.669,0,1.56.292,1.952-.113.423-.438.059-1.333.142-2.021.07-.585-.21-.642-.689-.635C152.663,117.647,151.041,117.632,149.419,117.632Z" transform="translate(-160.004 -135.013)"/><path class="a" d="M157.038,60.108h-13.87a5.822,5.822,0,0,1-.81-.02,1.288,1.288,0,0,1-1.167-1.167A1.31,1.31,0,0,1,142,57.478a2.216,2.216,0,0,1,1.033-.136h28.146a2.263,2.263,0,0,1,.956.115,1.3,1.3,0,0,1,.841,1.492,1.255,1.255,0,0,1-1.18,1.14,6.3,6.3,0,0,1-.81.018Z" transform="translate(-160.048 -89.964)"/><path class="a" d="M157.11,185.133q7.138,0,14.276,0c.945,0,1.485.409,1.586,1.159a1.363,1.363,0,0,1-1.162,1.58,4.975,4.975,0,0,1-.809.025H143.179c-.135,0-.27,0-.406,0-.992-.023-1.637-.591-1.618-1.424.018-.814.624-1.338,1.6-1.339Q149.932,185.127,157.11,185.133Z" transform="translate(-160.034 -190.04)"/><path class="a" d="M153.581,85.629H143.21a6.889,6.889,0,0,1-.809-.022,1.27,1.27,0,0,1-1.2-1.215,1.3,1.3,0,0,1,.935-1.436,2.6,2.6,0,0,1,.96-.1q10.534,0,21.068,0a3.809,3.809,0,0,1,.882.069,1.36,1.36,0,0,1-.2,2.683c-.241.023-.486.016-.729.016Z" transform="translate(-160.062 -109.946)"/><path class="a" d="M153.56,210.62c3.624,0,7.249.006,10.873-.006a1.514,1.514,0,0,1,1.454.693,1.376,1.376,0,0,1-.973,2.053,4.313,4.313,0,0,1-.729.022H143.007c-.162,0-.325.008-.487,0a1.4,1.4,0,0,1-1.364-1.423,1.37,1.37,0,0,1,1.369-1.327c.756-.029,1.514-.009,2.272-.009Z" transform="translate(-160.034 -209.995)"/><path class="a" d="M17.452-30.149c-.865,0-1.731.015-2.6,0a1.343,1.343,0,0,1-1.5-1.438q-.053-2.716,0-5.435a1.365,1.365,0,0,1,1.528-1.423q2.637-.026,5.274,0A1.369,1.369,0,0,1,21.662-37c.036,1.784.034,3.57,0,5.354a1.364,1.364,0,0,1-1.536,1.49C19.237-30.135,18.344-30.149,17.452-30.149Zm-1.34-4.23c0,1.464,0,1.464,1.481,1.464,1.312,0,1.312,0,1.312-1.31,0-1.467,0-1.467-1.481-1.467C16.112-35.692,16.112-35.692,16.112-34.379Z" transform="translate(-59.93 -14.938)"/><path class="a" d="M-33.634-30.153c-.865,0-1.731.016-2.6,0a1.353,1.353,0,0,1-1.48-1.456q-.036-2.676,0-5.353a1.378,1.378,0,0,1,1.473-1.481q2.677-.036,5.354,0a1.348,1.348,0,0,1,1.463,1.472q.031,2.676,0,5.353a1.322,1.322,0,0,1-1.457,1.465C-31.795-30.135-32.715-30.153-33.634-30.153Zm.053-2.768c1.4,0,1.4,0,1.4-1.36v-.081c0-1.328,0-1.328-1.362-1.328-1.408,0-1.408,0-1.408,1.369C-34.952-32.921-34.952-32.921-33.581-32.921Z" transform="translate(-19.947 -14.936)"/><path class="a" d="M68.677-30.15c-.892,0-1.785.018-2.677-.006a1.3,1.3,0,0,1-1.428-1.407q-.036-2.717,0-5.434a1.348,1.348,0,0,1,1.485-1.45q2.636-.031,5.273,0a1.4,1.4,0,0,1,1.532,1.507q.033,2.636,0,5.272a1.372,1.372,0,0,1-1.508,1.514C70.462-30.134,69.57-30.149,68.677-30.15ZM70.1-34.311c0-1.375,0-1.375-1.4-1.375-1.369,0-1.369,0-1.369,1.4,0,1.367,0,1.367,1.392,1.367C70.1-32.917,70.1-32.917,70.1-34.311Z" transform="translate(-100.046 -14.94)"/><path class="a" d="M1.246,210.128c-1.516,1.531-3,3.031-4.484,4.524a1.332,1.332,0,0,1-1.7.29,1.321,1.321,0,0,1-.7-1.432,1.543,1.543,0,0,1,.522-.888c1.775-1.781,3.544-3.568,5.324-5.344a1.35,1.35,0,0,1,2.125.018c.558.549,1.143,1.568,1.66,1.533.616-.042,1.181-.974,1.751-1.538.922-.913,1.826-1.844,2.745-2.76a1.351,1.351,0,0,1,2.128-.032q2.7,2.693,5.37,5.411a1.383,1.383,0,1,1-1.925,1.976c-.141-.126-.269-.266-.4-.4-1.223-1.224-2.459-2.435-3.661-3.68-.334-.346-.518-.379-.865-.01-.907.964-1.853,1.893-2.8,2.815-.272.264-.314.432-.012.7.481.434.934.9,1.378,1.374a1.379,1.379,0,0,1,.075,2.019,1.353,1.353,0,0,1-2.019-.07C4.255,213.163,2.777,211.663,1.246,210.128Z" transform="translate(-45.067 -204.812)"/><path class="a" d="M6.907,87.549a1.656,1.656,0,0,1-1.279-.6c-1.315-1.323-2.654-2.622-3.942-3.97-.39-.408-.574-.257-.88.056-1.326,1.351-2.67,2.684-4.012,4.02a1.341,1.341,0,0,1-1.69.335A1.324,1.324,0,0,1-5.623,85.9a1.715,1.715,0,0,1,.591-.942q2.606-2.614,5.211-5.228a1.424,1.424,0,0,1,2.146-.039c.039.037.073.08.111.118.531.529,1.007,1.463,1.619,1.453.531-.009,1.054-.905,1.569-1.421.956-.956,1.9-1.924,2.855-2.88a1.417,1.417,0,0,1,2.142-.034q2.674,2.661,5.325,5.344a1.421,1.421,0,0,1,.156,2.085,1.372,1.372,0,0,1-2.077-.1c-1.348-1.329-2.694-2.661-4.008-4.023-.355-.368-.544-.352-.884.007Q7.8,81.657,6.38,83c-.351.332-.3.516.022.814a19.355,19.355,0,0,1,1.473,1.507,1.245,1.245,0,0,1,.167,1.439A1.335,1.335,0,0,1,6.907,87.549Z" transform="translate(-45.073 -104.933)"/></g></svg>