<svg xmlns="http://www.w3.org/2000/svg" width="94.067" height="94.095" viewBox="0 0 94.067 94.095"><defs><style>.a{fill:#01acea;}</style></defs><g transform="translate(63.068 64)"><path class="a" d="M-63.068-63.925H8.939q0,38.3-.017,76.605c0,.737.132.963.922.956,4.958-.043,9.917-.013,14.875-.034.57,0,.791.1.768.733-.052,1.468-.015,2.939-.017,4.408a11.031,11.031,0,0,1-11.4,11.406q-32.874,0-65.748,0a11.365,11.365,0,0,1-1.738-.092,11.01,11.01,0,0,1-9.655-11.313Q-63.07-22.591-63.068-63.925ZM4.926,24.639a13,13,0,0,1-1.511-7.017Q3.447-19.9,3.443-57.42c0-.741-.086-1.019-.954-1.018q-29.567.048-59.134,0c-.776,0-.931.2-.93.947q.032,38.026.018,76.052c0,3.836,2.252,6.072,6.111,6.072H4.926Zm9.54,0a5.581,5.581,0,0,0,5.471-4.849c.063-.515-.046-.68-.6-.675q-4.864.038-9.728,0c-.583-.005-.726.145-.649.713A5.583,5.583,0,0,0,14.466,24.638Z" transform="translate(0 -0.057)"/><path class="a" d="M252.576-63.982c5.266,0,10.532.014,15.8-.018.63,0,.753.124.752.753q-.032,29.215-.017,58.43c-.326.122-.359.456-.485.707q-3.633,7.243-7.25,14.493c-.154.307-.223.685-.585.919-.162-.3-.31-.565-.444-.834Q256.659,3.1,252.97-4.268a3.746,3.746,0,0,1-.4-1.751Q252.584-35,252.576-63.982Zm5.511,35.92c0,6.277.009,12.554-.014,18.831,0,.594.141.777.748.754,1.284-.049,2.574-.067,3.855,0,.768.043.943-.175.94-.939-.029-9.676-.019-19.352-.019-29.027,0-2.786-.013-5.573.012-8.359,0-.515-.13-.674-.654-.659-1.346.037-2.7.056-4.039-.005-.69-.031-.85.159-.847.845C258.1-40.432,258.087-34.247,258.087-28.061Zm5.51-27.614c0-.765-.023-1.532.009-2.3.017-.416-.132-.512-.523-.507-1.5.02-3,.022-4.5,0-.414-.007-.512.132-.507.523.02,1.5.023,3,0,4.5-.007.414.132.512.523.507,1.5-.02,3-.023,4.5,0,.414.007.521-.132.507-.524C263.578-54.205,263.6-54.94,263.6-55.675ZM259.809-2.942l1.034,2.053,1.032-2.053Z" transform="translate(-238.127)"/><path class="a" d="M6.737-19.09c8.021,0,16.041.012,24.062-.019.762,0,.941.175.94.939q-.038,24.069,0,48.138c0,.762-.174.941-.938.94q-24.062-.038-48.124,0c-.762,0-.941-.175-.939-.939q.038-24.069,0-48.138c0-.762.174-.943.938-.94C-9.3-19.077-1.283-19.09,6.737-19.09ZM26.209,5.992c0-6.247-.012-12.494.017-18.74,0-.685-.157-.848-.844-.846q-18.643.035-37.287,0c-.684,0-.847.156-.846.844q.035,18.649,0,37.3c0,.684.156.847.844.846q18.643-.035,37.287,0c.684,0,.85-.156.846-.844C26.2,18.364,26.209,12.178,26.209,5.992Z" transform="translate(-33.803 -33.868)"/><path class="a" d="M6.808,206.883c7.99,0,15.98.012,23.969-.02.762,0,.981.171.94.94-.071,1.343-.038,2.694-.01,4.041.009.444-.125.616-.564.554a3.319,3.319,0,0,0-.459,0q-23.97,0-47.939.02c-.83,0-1.085-.194-1.032-1.033a31.754,31.754,0,0,0,0-3.672c-.036-.694.165-.847.847-.844,7.041.028,14.082.017,21.122.017Z" transform="translate(-33.78 -204.349)"/><path class="a" d="M6.714,251.778c8.02,0,16.041.012,24.061-.019.76,0,.982.167.941.939-.071,1.343-.038,2.694-.01,4.041.009.443-.122.618-.563.555a3.284,3.284,0,0,0-.459,0q-23.97,0-47.939.02c-.828,0-1.087-.19-1.033-1.031a31.809,31.809,0,0,0,0-3.672c-.036-.691.161-.849.846-.846,6.888.029,13.775.017,20.663.017Z" transform="translate(-33.779 -238.22)"/><path class="a" d="M50.133,29.031,71.4,42.218,50.133,55.4Zm5.488,9.894v6.587c1.681-1.04,3.278-2.035,4.885-3.016.35-.214.336-.35,0-.557C58.9,40.957,57.3,39.962,55.621,38.925Z" transform="translate(-85.403 -70.186)"/></g></svg>