<svg xmlns="http://www.w3.org/2000/svg" width="85.391" height="94.871" viewBox="0 0 85.391 94.871"><defs><style>.a{fill:#01acea;}</style></defs><g transform="translate(33.409 51.958)"><path class="a" d="M-33.367-4.541q0-20.99,0-41.981c0-3.572,1.845-5.436,5.383-5.436H46.594c3.546,0,5.388,1.857,5.388,5.433q0,41.981,0,83.961c0,3.611-1.842,5.438-5.483,5.438-24.793,0-49.587-.032-74.38.039a5.222,5.222,0,0,1-5.528-5.573C-33.308,23.381-33.367,9.42-33.367-4.541ZM9.407-39.313q-19.306,0-38.613-.02c-.8,0-1.022.157-1.021,1q.039,37.921.022,75.843c0,1.738.473,2.206,2.232,2.206H46.585c1.758,0,2.235-.469,2.235-2.2q0-37.921.022-75.842c0-.839-.218-1-1.02-1Q28.614-39.291,9.407-39.313Zm-.09-3.161H34.888c4.377,0,8.754-.013,13.131.014.625,0,.856-.128.817-.8-.061-1.05-.016-2.105-.016-3.159,0-1.962-.414-2.381-2.352-2.381H-27.875c-.164,0-.329,0-.493,0-1.233.027-1.817.59-1.833,1.808-.016,1.152.05,2.307-.021,3.454-.051.823.125,1.087,1.036,1.084Q-9.935-42.5,9.317-42.474Z" transform="translate(0 0)"/><path class="a" d="M35.876,59.388H4.869c-1.737,0-2.2-.474-2.2-2.233q0-17.528,0-35.056c0-1.756.465-2.224,2.211-2.224H66.891c1.671,0,2.156.491,2.156,2.182q0,17.578,0,35.155c0,1.685-.489,2.176-2.164,2.176Zm-.022-36.352H6.714c-.484,0-.913-.136-.91.7q.052,15.9.01,31.807c0,.566.162.707.711.7,2.271-.03,4.544-.04,6.815.005.619.012.834-.206.982-.766.831-3.142,1.676-6.281,2.56-9.409a9.244,9.244,0,0,1,8.036-7.128,33.3,33.3,0,0,1,4.239-.1c.263-.006.582.122.518-.417a59.543,59.543,0,0,1-.116-7.79,6.143,6.143,0,0,1,4.781-5.808,18.411,18.411,0,0,1,6-.106,3.8,3.8,0,0,1,3.3,3.113,3.985,3.985,0,0,1-.506,3.129,6.909,6.909,0,0,0-.979,4.124,11.2,11.2,0,0,1-.114,3.343c-.1.418.133.417.42.415q1.432-.006,2.865,0a9.468,9.468,0,0,1,9.509,7.232c.866,3.132,1.725,6.267,2.556,9.409.149.565.373.774.987.761,2.172-.044,4.347-.06,6.519,0,.823.025,1.014-.189,1.011-1.01q-.048-15.607,0-31.214c0-.824-.194-1.011-1.012-1.008C55.215,23.048,45.534,23.036,35.854,23.036ZM48.5,52.3c1.255-.495,2.427-.993,3.626-1.413.58-.2.654-.5.492-1.028-.345-1.13-.6-2.29-.97-3.41a6.083,6.083,0,0,0-4.725-4.286C45.3,41.812,43.639,42.1,42,41.992c-.963-.065-1.65,0-1.446,1.28a3,3,0,0,1-.285,1.336,5.5,5.5,0,0,1-10.707-1.69c-.005-.817-.268-.978-.992-.928-.852.058-1.711,0-2.567.018a6.275,6.275,0,0,0-5.866,4.213c-.412,1.21-.7,2.464-1.051,3.694-.122.42-.043.644.421.791,1.721.545,3.43,1.129,5.137,1.715.384.131.622.084.744-.339.082-.282.219-.548.329-.822.774-1.927.759-1.887,2.677-1.2.813.291,1.062.554.651,1.432-.709,1.517-1.258,3.108-1.9,4.739,5.944,0,11.738-.01,17.533.015.605,0,.684-.22.674-.737-.03-1.58-.011-3.161-.011-4.742,0-2.517,0-2.491,2.5-2.457.612.008.684.236.668.746C48.477,50.1,48.5,51.152,48.5,52.3ZM39.047,36.042c-.029-1.943-.029-1.943-1.94-1.943a3.563,3.563,0,0,1-.591,0,2.593,2.593,0,0,0-2.71,1.133c-.342.467-.98.7-1.1,1.334a3.32,3.32,0,0,0,2.529,3.8,3.165,3.165,0,0,0,3.707-2.456A12.68,12.68,0,0,0,39.047,36.042Zm-6.319-4.116a2.292,2.292,0,0,1,2.308-.993,26.865,26.865,0,0,1,3.044.034,1.907,1.907,0,0,0,2.3-1.5c.4-1.071.093-1.669-1.041-1.69-.983-.018-1.966,0-2.949,0C33.851,27.779,32.629,29.061,32.728,31.926Zm-12.139,24.3c.887,0,1.775-.015,2.661.008a.553.553,0,0,0,.646-.43c.141-.454-.258-.4-.448-.468-1.577-.547-3.164-1.069-4.748-1.595-.179-.059-.456-.216-.541-.053a4.675,4.675,0,0,0-.631,2.333c.026.464.774.15,1.189.189C19.336,56.271,19.965,56.228,20.589,56.228Zm30.777,0c.818,0,1.636-.008,2.454,0,.317,0,.512-.053.405-.431-.17-.6-.327-1.2-.5-1.79-.057-.191-.137-.325-.41-.213q-2.264.927-4.546,1.808a.35.35,0,0,0-.246.451c.043.232.246.166.391.167C49.729,56.232,50.548,56.229,51.366,56.229Zm-18.6-13.446a2.3,2.3,0,0,0,2.06,2.373,2.2,2.2,0,0,0,2.407-1.717A6.639,6.639,0,0,1,32.762,42.783Z" transform="translate(-26.549 -52.866)"/><path class="a" d="M7.227,181.479a4.7,4.7,0,0,1,2.539.592,1.118,1.118,0,0,0,1.307.032,4.854,4.854,0,0,1,6.084,1.1,4.754,4.754,0,0,1,.093,6.253c-1.817,2.034-3.8,3.92-5.761,5.825a1.462,1.462,0,0,1-2.209-.09c-1.854-1.823-3.733-3.627-5.492-5.539a4.566,4.566,0,0,1-.773-5.324A4.715,4.715,0,0,1,7.227,181.479Zm.083,3.169a1.713,1.713,0,0,0-1.45,1.081,1.668,1.668,0,0,0,.413,1.977c1.224,1.238,2.478,2.447,3.679,3.707.4.425.629.368,1-.021,1.137-1.185,2.32-2.326,3.472-3.5.909-.923,1-1.915.261-2.688-.764-.8-1.792-.731-2.761.2-1.187,1.135-1.789,1.135-2.995-.032A2.152,2.152,0,0,0,7.31,184.648Z" transform="translate(-26.424 -171.801)"/><path class="a" d="M19.374,256.83a4.738,4.738,0,1,1,4.76-4.766A4.755,4.755,0,0,1,19.374,256.83Zm1.6-4.72a1.58,1.58,0,1,0-1.574,1.563A1.589,1.589,0,0,0,20.973,252.11Z" transform="translate(-35.376 -220.284)"/><path class="a" d="M100.312,259.283c2.4,0,4.806.017,7.209-.013.556-.007.7.145.71.7.028,2.471.048,2.471-2.386,2.471-4.214,0-8.427-.014-12.641.015-.641,0-.815-.157-.811-.805.015-2.371-.011-2.371,2.389-2.371Z" transform="translate(-92.586 -229.053)"/><path class="a" d="M71.675,260.941c0,1.54,0,1.54-1.522,1.54-1.639,0-1.639,0-1.639-1.621,0-1.54,0-1.54,1.522-1.54C71.675,259.32,71.675,259.32,71.675,260.941Z" transform="translate(-75.012 -229.09)"/><path class="a" d="M70.095,214.59a1.58,1.58,0,1,1,1.581-1.554A1.589,1.589,0,0,1,70.095,214.59Z" transform="translate(-75.014 -193.844)"/><path class="a" d="M89.63,213.055a1.58,1.58,0,1,1-1.508-1.626A1.592,1.592,0,0,1,89.63,213.055Z" transform="translate(-88.227 -193.842)"/><path class="a" d="M107.589,213.029a1.58,1.58,0,1,1-1.537-1.6A1.593,1.593,0,0,1,107.589,213.029Z" transform="translate(-101.444 -193.845)"/><path class="a" d="M-7.686-30.837A1.59,1.59,0,0,1-9.3-32.352,1.584,1.584,0,0,1-7.717-34a1.588,1.588,0,0,1,1.571,1.563A1.591,1.591,0,0,1-7.686-30.837Z" transform="translate(-17.739 -13.219)"/><path class="a" d="M11.811-32.375a1.592,1.592,0,0,1-1.6,1.534,1.59,1.59,0,0,1-1.555-1.677A1.589,1.589,0,0,1,10.3-34,1.591,1.591,0,0,1,11.811-32.375Z" transform="translate(-30.954 -13.214)"/><path class="a" d="M29.769-32.456a1.594,1.594,0,0,1-1.517,1.619,1.594,1.594,0,0,1-1.641-1.493A1.586,1.586,0,0,1,28.175-34,1.588,1.588,0,0,1,29.769-32.456Z" transform="translate(-44.171 -13.219)"/></g></svg>