<svg xmlns="http://www.w3.org/2000/svg" width="91.826" height="91.827" viewBox="0 0 91.826 91.827"><defs><style>.a{fill:#01acea;}</style></defs><g transform="translate(127.914 127.947)"><path class="a" d="M-54.92-36.12a4.171,4.171,0,0,1-1.373-1.572c-1.834-3.21-3.7-6.4-5.524-9.618-.285-.5-.509-.588-1-.272-.9.577-1.844,1.1-2.781,1.621a1.806,1.806,0,0,1-2.889-1.672c-.019-.717-.039-1.437.008-2.151.036-.543-.114-.711-.681-.7-1.762.04-3.526.015-5.29.015q-9.1,0-18.2,0a2.371,2.371,0,0,1-1.382-.271,1.709,1.709,0,0,1-.836-1.837,1.733,1.733,0,0,1,1.506-1.455,5.193,5.193,0,0,1,.895-.025c7.711,0,15.422-.012,23.133.017.721,0,.864-.206.86-.884q-.043-7.576,0-15.153c.005-.734-.224-.869-.891-.855-2.032.042-4.064.018-6.1.014-1.392,0-2.213-.658-2.229-1.77s.815-1.815,2.181-1.815q12.463,0,24.926,0c1.333,0,2.116.66,2.13,1.766.014,1.144-.78,1.817-2.168,1.819-3.013,0-6.026,0-9.26,0,.394.254.616.41.85.546q7.433,4.3,14.866,8.6c1.024.593,1.35,1.276,1.116,2.187a1.826,1.826,0,0,1-.924,1.152c-.826.478-1.642.973-2.485,1.419-.377.2-.5.389-.207.738a.47.47,0,0,1,.04.08c1.167,2.142,1.167,2.142,3.635,2.142,3.091,0,3.316-.223,3.316-3.291q0-25.151.022-50.3c0-.818-.228-.946-.979-.945q-41.38.03-82.76,0c-.8,0-.954.206-.953.971q.036,25.555.019,51.109c0,1.912.545,2.462,2.439,2.462h13.629c.239,0,.478-.007.717,0a1.8,1.8,0,0,1,1.864,1.771,1.761,1.761,0,0,1-1.825,1.8c-5.111.016-10.223.064-15.332-.027a5.111,5.111,0,0,1-4.7-3.333c-.117-.257-.073-.6-.383-.755v-69.229c.3-.123.261-.434.354-.663a5.45,5.45,0,0,1,3.108-3.109c.229-.094.539-.057.663-.354h83.217a5.829,5.829,0,0,1,3.865,2.9c.23.457.414.936.618,1.405v69.05c-.314.155-.267.5-.384.752a5.357,5.357,0,0,1-4.774,3.36c-.643.045-1.291.007-2.064.007.83,1.438,1.6,2.768,2.365,4.1.937,1.628.73,2.379-.925,3.336q-5.985,3.461-11.972,6.918Zm-27.145-76.045q20.756,0,41.511.013c.647,0,.912-.088.9-.841-.051-3.077-.017-6.156-.023-9.235,0-1.474-.66-2.13-2.139-2.13q-40.167,0-80.333,0c-1.529,0-2.173.649-2.176,2.183,0,3.019.026,6.038-.02,9.055-.011.757.135.979.949.978Q-102.731-112.189-82.064-112.164Zm33.7,52.1-16.512-9.532c-.017.269-.029.377-.029.486q0,8.922,0,17.843c0,.09,0,.179,0,.269-.02.358.121.427.423.248q.808-.479,1.623-.945c1.439-.827,2.285-.609,3.108.813,1.881,3.252,3.767,6.5,5.624,9.766.315.554.525.751,1.178.358,2.5-1.508,5.039-2.957,7.588-4.385.6-.334.681-.579.321-1.189-1.942-3.285-3.839-6.6-5.738-9.907a1.832,1.832,0,0,1,.751-2.854C-49.521-59.4-49-59.691-48.366-60.062Z" transform="translate(0 0)"/><path class="a" d="M-41.892,45.018A19.039,19.039,0,0,1-60.929,64.023,19.053,19.053,0,0,1-79.911,44.956,19.046,19.046,0,0,1-60.824,26,19.035,19.035,0,0,1-41.892,45.018Zm-6.9,9.422A15.3,15.3,0,0,0-50.637,33.5,15.394,15.394,0,0,0-72.3,34.645c-5.786,6.375-4.7,15.231-.673,19.757a14.527,14.527,0,0,1,6.55-5.484c-1.577-2.319-1.862-3.449-1.684-6.573a7.224,7.224,0,0,1,6.675-6.772,7.139,7.139,0,0,1,7.507,5.363c.642,2.805.508,5.566-1.466,7.979A14.564,14.564,0,0,1-48.79,54.439Zm-12.863,6a16.405,16.405,0,0,0,9.735-2.887c.481-.346.47-.585.191-1.042a10.842,10.842,0,0,0-18.359.022c-.306.5-.212.715.235,1.027A15.09,15.09,0,0,0-61.653,60.435Zm-2.882-16.991c0,.328-.02.657,0,.984a3.66,3.66,0,0,0,3.589,3.419,3.632,3.632,0,0,0,3.663-3.333,11.571,11.571,0,0,0-.033-2.32,3.6,3.6,0,0,0-4.162-3C-63.512,39.572-64.551,41.007-64.535,43.444Z" transform="translate(-39.391 -126.327)"/><path class="a" d="M168.53,26q7.08,0,14.159,0c1.67,0,2.284.606,2.286,2.252q0,3.9,0,7.8c0,1.48-.657,2.144-2.124,2.144q-14.383.006-28.767,0a1.833,1.833,0,0,1-2.1-2.073q-.013-3.988,0-7.976c0-1.482.653-2.141,2.123-2.143Q161.316,25.994,168.53,26Zm-.055,8.609c4.064,0,8.129-.012,12.193.014.581,0,.758-.139.735-.731-.048-1.253-.032-2.51,0-3.765.009-.431-.117-.56-.549-.55-1.165.029-2.331.01-3.5.01-6.993,0-13.987.01-20.98-.017-.665,0-.866.145-.828.824a30.711,30.711,0,0,1,0,3.405c-.037.673.154.833.825.827C160.406,34.59,164.441,34.608,168.476,34.608Z" transform="translate(-229.674 -126.327)"/><path class="a" d="M168.52,121.936q7.213,0,14.426,0A1.837,1.837,0,0,1,185,123.6a1.8,1.8,0,0,1-1.627,1.907,7.352,7.352,0,0,1-.806.013H154.436c-.239,0-.479.011-.717-.009a1.8,1.8,0,0,1-1.7-1.839,1.76,1.76,0,0,1,1.719-1.724c1.313-.042,2.628-.015,3.942-.015Z" transform="translate(-229.709 -205.045)"/><path class="a" d="M17.858,283.936a1.791,1.791,0,1,1-1.792,1.746A1.8,1.8,0,0,1,17.858,283.936Z" transform="translate(-118.149 -337.988)"/><path class="a" d="M97.546-83.978h20.432a6.462,6.462,0,0,1,.895.022,1.8,1.8,0,0,1,1.545,1.713,1.809,1.809,0,0,1-1.521,1.826,3.89,3.89,0,0,1-.626.024H76.78a4.831,4.831,0,0,1-.537-.012,1.773,1.773,0,0,1-1.624-1.815,1.768,1.768,0,0,1,1.6-1.745,7.089,7.089,0,0,1,.806-.015Z" transform="translate(-166.197 -36.078)"/><path class="a" d="M-64.338-82.147a1.811,1.811,0,0,1-1.852,1.776,1.81,1.81,0,0,1-1.73-1.808,1.808,1.808,0,0,1,1.851-1.775A1.809,1.809,0,0,1-64.338-82.147Z" transform="translate(-49.231 -36.1)"/><path class="a" d="M-14.165-82.121a1.768,1.768,0,0,1,1.774-1.834,1.828,1.828,0,0,1,1.8,1.75,1.827,1.827,0,0,1-1.8,1.835A1.768,1.768,0,0,1-14.165-82.121Z" transform="translate(-93.342 -36.1)"/></g></svg>