<svg xmlns="http://www.w3.org/2000/svg" width="110.84" height="100.097" viewBox="0 0 110.84 100.097"><defs><style>.a{fill:#01acea;}</style></defs><g transform="translate(63.232 49.544)"><path class="a" d="M278.42,57.691A9.587,9.587,0,0,0,277.789,61a42.586,42.586,0,0,1-11.9,22.675c-1.358-1.385-2.7-2.8-4.092-4.15-.553-.536-.137-.77.177-1.1a35.938,35.938,0,0,0,.22-49.432c-.75-.789-.656-1.153.065-1.823,1.264-1.174,2.422-2.463,3.651-3.731a42.41,42.41,0,0,1,11.416,20.494,44.1,44.1,0,0,1,.879,5.324c.019.17-.024.369.217.424Z" transform="translate(-230.812 -48.916)"/><path class="a" d="M15.727,43.825,9.312,39.958v1.227c0,4.184-.017,8.369.016,12.553.006.715-.112.973-.913.972q-35.387-.036-70.773,0c-.724,0-.874-.208-.874-.9q.026-41.447,0-82.894a1.687,1.687,0,0,1,.562-1.308q7.207-7.179,14.386-14.385a1.812,1.812,0,0,1,1.4-.6q27.649.024,55.3-.007c.8,0,.915.264.91.975C9.3-39.9,9.312-35.394,9.312-30.637L15.727-34.5Zm-72.45-30.7q0,17.046-.012,34.092c0,.661.021,1,.877,1q28.9-.043,57.794-.008c.685,0,.909-.145.9-.874q-.062-5.14,0-10.281a1.607,1.607,0,0,0-.91-1.612Q-7.609,29.721-17.1,23.92a3.489,3.489,0,0,0-1.927-.53c-5.086.02-10.173-.007-15.26.029-.824.006-1.088-.175-1.086-1.055q.048-17.7,0-35.39c0-.856.224-1.076,1.072-1.069,5.123.04,10.245.018,15.368.023a2.776,2.776,0,0,0,1.546-.345Q-7.657-20.348,2.1-26.234A1.282,1.282,0,0,0,2.834-27.5q-.051-5.249,0-10.5c.007-.7-.178-.889-.886-.888q-20.4.033-40.8,0c-.755,0-.96.194-.955.953.034,4.942-.006,9.885.039,14.827.008.9-.143,1.206-1.142,1.193-4.906-.064-9.813,0-14.718-.052-.9-.009-1.119.2-1.116,1.109C-56.711-9.531-56.723,1.8-56.723,13.125ZM9.283-22.985c-.4.23-.642.365-.881.51Q-2.3-15.984-13.012-9.509a1.527,1.527,0,0,0-.862,1.522q.04,12.654,0,25.309A1.528,1.528,0,0,0-13,18.839Q-2.278,25.292,8.414,31.8c.254.154.474.463.869.325ZM-28.856,4.706c0,3.784.014,7.568-.014,11.351,0,.644.138.879.831.866,2.306-.043,4.613-.037,6.918,0,.616.009.784-.174.782-.787q-.03-11.46,0-22.919c0-.715-.253-.818-.873-.809-2.234.033-4.469.043-6.7,0-.749-.016-.973.188-.965.953C-28.835-2.862-28.856.922-28.856,4.706Zm-17.43-41.79-8.638,8.645c2.527,0,5.256,0,7.985,0,.4,0,.669-.01.664-.55C-46.3-31.746-46.286-34.508-46.286-37.085Z" transform="translate(0 -4.158)"/><path class="a" d="M230.183,67.071c1.322-1.309,2.682-2.6,3.972-3.961.49-.516.734-.43,1.169.044a26.935,26.935,0,0,1,.193,36.535c-.566.632-.907.8-1.555.069-1.049-1.186-2.216-2.271-3.354-3.377-.327-.318-.465-.506-.065-.922a20.348,20.348,0,0,0-.228-28.159A1.268,1.268,0,0,1,230.183,67.071Z" transform="translate(-208.536 -76.861)"/><path class="a" d="M108.542,45.7q10.728-6.45,21.415-12.966S107.9,46.089,108.542,45.7Z" transform="translate(-121.554 -55.211)"/></g></svg>