<svg xmlns="http://www.w3.org/2000/svg" width="78.674" height="78.664" viewBox="0 0 78.674 78.664"><defs><style>.a{fill:#01acea;}</style></defs><g transform="translate(76.151 76.1)"><path class="a" d="M2.522-56.9c-.348.459-.486,1.051-.942,1.446a3,3,0,0,1-3.206.651A2.925,2.925,0,0,1-3.61-57.555a6.321,6.321,0,0,0-2.45-4.98A6.07,6.07,0,0,0-9.687-63.8c-1.2-.034-2.406,0-3.609-.02-.359-.007-.49.082-.478.463.028.844.022,1.689.005,2.534a3.072,3.072,0,0,1-3.077,3.153,3.074,3.074,0,0,1-3.063-3.167c-.015-.793-.027-1.588.007-2.38.019-.445-.065-.61-.57-.608q-6.412.036-12.824,0c-.537,0-.626.18-.607.648.033.818.028,1.638,0,2.457a3.068,3.068,0,0,1-3.1,3.05,3.064,3.064,0,0,1-3.033-3.039c-.028-.869-.031-1.741,0-2.61.016-.42-.133-.5-.519-.5q-6.412.018-12.825,0c-.412,0-.519.122-.5.516.029.716.01,1.433.008,2.15-.005,2.084-1.225,3.474-3.054,3.486s-3.084-1.383-3.092-3.448c0-.742,0-1.485,0-2.227,0-.212.085-.482-.3-.468-1.684.062-3.4-.214-5.049.218A6.111,6.111,0,0,0-70-57.412c-.015,3.3,0,6.6,0,9.907q0,18.7,0,37.4a6.143,6.143,0,0,0,4.587,6.3,7.344,7.344,0,0,0,2.052.227q6.143-.005,12.287,0a2.97,2.97,0,0,1,2.924,1.851,2.959,2.959,0,0,1-.534,3.286,4.188,4.188,0,0,1-1.651,1.006H-65.544c-.056-.206-.239-.148-.376-.175a11.4,11.4,0,0,1-2.991-.927,12.108,12.108,0,0,1-7.224-11.526q-.04-23.616-.009-47.232c0-.333.006-.666.02-1A12.329,12.329,0,0,1-65.575-69.822a42.421,42.421,0,0,1,5.06-.125c.4-.006.525-.1.511-.51-.031-.844-.025-1.69,0-2.534A3.07,3.07,0,0,1-56.965-76.1a3.072,3.072,0,0,1,3.093,3.136c.018.844.02,1.69,0,2.534-.01.356.077.481.46.48q6.451-.02,12.9,0c.454,0,.486-.185.479-.539-.016-.845-.023-1.69,0-2.534a3.066,3.066,0,0,1,3.07-3.08A3.066,3.066,0,0,1-33.9-73.013c.022.819.028,1.639,0,2.457-.017.439.056.614.567.611q6.451-.036,12.9,0c.46,0,.546-.155.531-.566-.029-.818-.023-1.638,0-2.457a3.072,3.072,0,0,1,3.1-3.129,3.071,3.071,0,0,1,3.037,3.115c.02.844.028,1.69-.005,2.534-.017.419.131.507.519.5,1.305-.018,2.612-.031,3.916.009A12.335,12.335,0,0,1,1.773-61.88c.323.877.406,1.812.749,2.677Z" transform="translate(0 0)"/><path class="a" d="M112.118,72.8a6.755,6.755,0,0,0-.586,1.689,9.212,9.212,0,0,1-8.339,5.978c-2.073.046-4.147.032-6.22.009a3.067,3.067,0,1,1-.027-6.133c1.509-.028,3.02-.014,4.53-.021.019,0,.039-.022.109-.065a18.547,18.547,0,0,0-5.172-4.689,19.472,19.472,0,0,0-16.274-2.243A19.152,19.152,0,0,0,67.158,79.211,19.09,19.09,0,0,0,70.19,99.057c4.447,5.554,10.409,7.966,17.524,7.438a20.506,20.506,0,0,0,7.933-2.4,3.037,3.037,0,0,1,4.559,2.006,2.988,2.988,0,0,1-1.526,3.307,26.081,26.081,0,0,1-8.934,3.051,4.024,4.024,0,0,0-1.6.29H83.233a2.111,2.111,0,0,0-1.137-.3,25.842,25.842,0,0,1-18.479-12.023A24.956,24.956,0,0,1,59.748,83.74,25.565,25.565,0,0,1,69.771,65.858,25.288,25.288,0,0,1,87.154,60.4a25.615,25.615,0,0,1,18.12,8.654c.2.216.391.436.705.788,0-1.726-.034-3.277.009-4.826a3.049,3.049,0,0,1,5.982-.739c.029.1.026.2.148.231Z" transform="translate(-110.2 -112.777)"/><path class="a" d="M306.566,191.76a3.6,3.6,0,0,1-2.221,2.317,3.069,3.069,0,0,1-1.882-5.841,3.109,3.109,0,0,1,3.9,1.914c.063.178-.047.427.2.535Z" transform="translate(-304.044 -213.319)"/><path class="a" d="M165.56,139.863c0,1.459-.017,2.918.005,4.377A3.347,3.347,0,0,1,164.33,147c-1.588,1.332-3.157,2.686-4.763,4a3.067,3.067,0,0,1-4.334-.333,3.025,3.025,0,0,1,.362-4.322c1.065-.958,2.17-1.871,3.283-2.773a1.317,1.317,0,0,0,.55-1.157c-.029-2.406-.034-4.812,0-7.217a3.041,3.041,0,0,1,2.517-2.969,3.086,3.086,0,0,1,3.334,1.767,3.506,3.506,0,0,1,.284,1.493C165.556,136.945,165.56,138.4,165.56,139.863Z" transform="translate(-186.238 -168.179)"/><path class="a" d="M280.372,250.575a3.058,3.058,0,0,1,6.114.15,3.058,3.058,0,1,1-6.114-.15Z" transform="translate(-287.888 -261.398)"/></g></svg>