<svg xmlns="http://www.w3.org/2000/svg" xmlns:xlink="http://www.w3.org/1999/xlink" width="263.5" height="213" viewBox="0 0 263.5 213"><defs><style>.a{fill:#ceeafe;}.b{fill:url(#a);}.c{fill:url(#b);}</style><linearGradient id="a" y1="0.5" x2="1" y2="0.5" gradientUnits="objectBoundingBox"><stop offset="0" stop-color="#edd12b"/><stop offset="1" stop-color="#ed3550"/></linearGradient><linearGradient id="b" x1="0.894" y1="0.067" x2="0.266" y2="0.906" gradientUnits="objectBoundingBox"><stop offset="0" stop-color="#14d0ef"/><stop offset="1" stop-color="#9d15ed"/></linearGradient></defs><g transform="translate(-1487.5 -5468)"><path class="a" d="M10.54,0H252.96A10.281,10.281,0,0,1,263.5,10V203a10.281,10.281,0,0,1-10.54,10H10.54A10.281,10.281,0,0,1,0,203V10A10.281,10.281,0,0,1,10.54,0Z" transform="translate(1487.5 5468)"/><g transform="translate(1449.941 5420.225)"><path class="b" d="M241.821,120.915a13.784,13.784,0,0,0-13.223,9.97h-55.05l-15.321-15.319h36.945a13.767,13.767,0,1,0,0-7.593H150.635l-10.1-10.1-36.807,36.806,36.807,36.807,10.1-10.1h44.537a13.767,13.767,0,1,0,0-7.593H158.23l15.319-15.319H228.6a13.763,13.763,0,1,0,13.223-17.564ZM208.4,105.594a6.175,6.175,0,1,1-6.175,6.175A6.182,6.182,0,0,1,208.4,105.594Zm0,45.827a6.174,6.174,0,1,1-6.175,6.174A6.181,6.181,0,0,1,208.4,151.421Zm-67.859,9.333-26.072-26.072,26.072-26.07,26.07,26.07Zm101.283-19.9A6.175,6.175,0,1,1,248,134.682,6.181,6.181,0,0,1,241.821,140.857Z" transform="translate(18.969 18.97)"/><path class="c" d="M213.146,185.46H188.092l-28.585,28.585L99.114,153.652l60.394-60.394,28.585,28.586h25.055L159.507,68.2,74.059,153.652,159.507,239.1Z" transform="translate(0)"/></g></g></svg>