<svg xmlns="http://www.w3.org/2000/svg" xmlns:xlink="http://www.w3.org/1999/xlink" width="263.5" height="213" viewBox="0 0 263.5 213"><defs><style>.a{fill:#ceeafe;}.b{fill:url(#a);}.c{fill:url(#b);}</style><linearGradient id="a" x1="-0.482" y1="1.445" x2="1.289" y2="-0.166" gradientUnits="objectBoundingBox"><stop offset="0" stop-color="#488334"/><stop offset="1" stop-color="#90e545"/></linearGradient><linearGradient id="b" y1="0.5" x2="1" y2="0.5" gradientUnits="objectBoundingBox"><stop offset="0" stop-color="#14d0ef"/><stop offset="1" stop-color="#9d15ed"/></linearGradient></defs><g transform="translate(-571.5 -5468)"><path class="a" d="M10.54,0H252.96A10.281,10.281,0,0,1,263.5,10V203a10.281,10.281,0,0,1-10.54,10H10.54A10.281,10.281,0,0,1,0,203V10A10.281,10.281,0,0,1,10.54,0Z" transform="translate(571.5 5468)"/><g transform="translate(631.228 5495.021)"><path class="b" d="M371.225,319.042l24.211,24.211-24.211,24.211-24.211-24.211Zm31.883-14.372H383.756v19.351h19.352ZM386.635,286.24v13.6h13.6v-13.6ZM407.8,270.134h-7.945v7.943H407.8Zm14.214,3.972h5.454V268.65h-5.454Zm-8.182-14.061V264h3.957v-3.957Zm10.909,37.264h8.543v-8.544h-8.543Zm-2.253,7.362H406.334v16.151h16.152Zm-13.968-8.885H420.3V284H408.518Z" transform="translate(-302.454 -260.045)"/><path class="c" d="M433.356,320.923H418.184v5.539l12.95,12.95-48.061,48.061-48.061-48.061,48.061-48.061,6.876,6.875v-.078h4.522V282.041l-11.4-11.4L314.3,339.413l68.771,68.773,68.773-68.773Z" transform="translate(-314.303 -256.206)"/></g></g></svg>