<svg xmlns="http://www.w3.org/2000/svg" width="65.338" height="84.735" viewBox="0 0 65.338 84.735"><defs><style>.a{fill:#01acea;}</style></defs><g transform="translate(-22.808 108.301)"><path class="a" d="M41.841-108.3H69.148a3.663,3.663,0,0,1,2.654,4.175c-.041.521.033,1.051-.016,1.571-.056.59.09.8.744.783,2.316-.048,4.633-.015,6.95-.02a8.4,8.4,0,0,1,3.918.845,8.275,8.275,0,0,1,4.74,7.892q.022,14.646.005,29.293,0,15.722,0,31.444a8.322,8.322,0,0,1-4.787,7.948,23.723,23.723,0,0,1-2.453.8h-51.3c-.59-.478-1.372-.461-2.024-.8a8.245,8.245,0,0,1-4.755-7.788Q22.8-62.669,22.81-93.18c0-.276-.008-.553.016-.826a8.334,8.334,0,0,1,1.7-4.484,8.349,8.349,0,0,1,6.962-3.3c2.315,0,4.631-.02,6.945.013.585.008.774-.166.727-.741s-.011-1.157-.01-1.736C39.15-106.619,39.7-107.442,41.841-108.3ZM29.429-62.688q0,15.056,0,30.112c0,1.909.485,2.39,2.405,2.39H79.069c1.934,0,2.453-.515,2.453-2.438q0-30.029,0-60.058c0-.193.008-.386,0-.579a1.739,1.739,0,0,0-1.908-1.9c-2.426-.031-4.853,0-7.279-.02-.451,0-.562.152-.545.57.029.688.008,1.378.008,2.068,0,2.63-1.277,3.915-3.894,3.915q-9.554,0-19.109,0c-1.985,0-3.971.007-5.956,0a3.357,3.357,0,0,1-3.686-3.7c-.006-.689-.041-1.382.011-2.067.047-.607-.124-.807-.765-.8-2.205.042-4.412.015-6.617.016-1.818,0-2.35.539-2.35,2.369Q29.429-77.744,29.429-62.688ZM55.474-95.246c3,0,6-.009,9.005.009.493,0,.727-.058.712-.65-.044-1.734-.03-3.47-.005-5.2.006-.45-.095-.6-.578-.6q-9.129.026-18.258,0c-.469,0-.6.127-.59.594.028,1.68.037,3.36,0,5.039-.015.619.115.84.8.83C49.526-95.27,52.5-95.246,55.474-95.246Z" transform="translate(0 0)"/><path class="a" d="M124.892,128.13a3.4,3.4,0,0,1,2.479,1.151c1.83,1.836,3.682,3.649,5.485,5.511.463.478.7.529,1.2.021,4.715-4.761,9.467-9.484,14.2-14.231a3.367,3.367,0,0,1,3.667-1.024,3.262,3.262,0,0,1,1.537,5.123,8.365,8.365,0,0,1-.671.73q-8.274,8.279-16.552,16.554c-1.9,1.9-3.66,1.889-5.572-.022-2.672-2.67-5.353-5.331-8.009-8.018a3.322,3.322,0,0,1-.087-4.916A3.235,3.235,0,0,1,124.892,128.13Z" transform="translate(-82.369 -189.979)"/></g></svg>