<svg xmlns="http://www.w3.org/2000/svg" width="10.715" height="16" viewBox="0 0 10.715 16"><defs><style>.a{fill:#01acea;}.b{fill:#73469b;}.c{fill:#fff9f9;}</style></defs><g transform="translate(-140.995 -381.277)"><path class="a" d="M146.837,381.277H141v16l3.151-14.692C144.34,381.312,146.837,381.277,146.837,381.277Z" transform="translate(0 0)"/><path class="b" d="M146.837,381.277a3.358,3.358,0,0,0-1.9.55.67.67,0,0,0-.009,1.075,11.512,11.512,0,0,0,2.373,1.162L141,397.277h5.139v-6.254h.7a4.873,4.873,0,0,0,4.873-4.873h0A4.873,4.873,0,0,0,146.837,381.277Z" transform="translate(0 0)"/><path class="c" d="M144.925,382.9a.67.67,0,0,1,.009-1.075,3.358,3.358,0,0,1,1.9-.55s-2.5.035-2.691,1.308L141,397.277l6.3-13.213A11.512,11.512,0,0,1,144.925,382.9Z" transform="translate(0 0)"/></g></svg>