<svg xmlns="http://www.w3.org/2000/svg" width="85.099" height="74.828" viewBox="0 0 85.099 74.828"><defs><style>.a{fill:#01acea;}</style></defs><path class="a" d="M9-39.519V17.33c-.265.082-.251.341-.314.534a7.44,7.44,0,0,1-7.539,5.447q-34.69.008-69.379,0a8.092,8.092,0,0,1-2.219-.257A7.482,7.482,0,0,1-76.1,15.335q0-26.923,0-53.846c0-2.069.923-3,2.975-3q9.846,0,19.692-.008c.793,0,1.848.347,2.3-.147.391-.426.111-1.469.128-2.239a7.457,7.457,0,0,1,7.516-7.563q9.928-.094,19.858,0a7.249,7.249,0,0,1,6.741,4.189,9.706,9.706,0,0,1,.771,5.021c-.025.637.165.76.772.758,7.035-.023,14.07.014,21.1-.037C7.35-41.547,8.485-41.1,9-39.519ZM4.013-23.227l-.139-.01Q2.032-17.709.188-12.18A7.542,7.542,0,0,1-7.53-6.607c-3.766,0-7.533-.007-11.3.007-.736,0-1.717-.323-2.139.146-.362.4-.106,1.366-.115,2.081a2.526,2.526,0,0,1-2.728,2.751c-1.246.011-2.492,0-3.739,0q-7.727,0-15.454,0c-2.1,0-3.01-.921-3.012-3.048a5.833,5.833,0,0,1,.009-1c.146-.833-.211-.97-.982-.962-4.237.041-8.475.026-12.712.018a7.472,7.472,0,0,1-7.49-5.305c-.505-1.432-.963-2.88-1.444-4.32q-1.174-3.512-2.352-7.022l-.127.023v.715q0,18.9,0,37.807c0,2.119.913,3.037,3.023,3.037H.953c2.164,0,3.059-.9,3.059-3.084q0-15.455,0-30.91ZM-70.109-36.505c.045.159.077.289.119.415q3.745,11.24,7.5,22.478a2.569,2.569,0,0,0,2.853,2.017q5.734.007,11.468,0c.688,0,1.611.241,2-.107.457-.405.136-1.348.148-2.057a2.552,2.552,0,0,1,2.831-2.819c2.548-.006,5.1,0,7.645,0,3.933,0,7.867-.009,11.8,0a2.5,2.5,0,0,1,2.658,2.649,12.7,12.7,0,0,1-.01,1.578c-.067.616.125.777.756.772,4.183-.033,8.365-.017,12.548-.017,2.036,0,2.685-.473,3.329-2.407Q-2.093-21.114.282-28.226c.915-2.746,1.827-5.492,2.754-8.279Zm36.531-5.008c3.458,0,6.916.006,10.374-.005.683,0,1.577.3,1.994-.117s.116-1.31.119-1.993a2.54,2.54,0,0,0-2.845-2.87c-2.573-.006-5.146,0-7.718,0-3.9,0-7.8-.009-11.7,0a2.5,2.5,0,0,0-2.658,2.645c-.009.525.04,1.055-.012,1.576-.06.6.1.785.747.779C-41.379-41.531-37.479-41.513-33.578-41.513Zm.028,34.907c2.3,0,4.6-.013,6.9.011.468,0,.606-.121.595-.593-.032-1.3-.026-2.6,0-3.9.007-.4-.111-.509-.509-.508q-6.979.02-13.958,0c-.4,0-.517.106-.51.508.025,1.274.037,2.549,0,3.821-.018.545.138.687.68.679C-38.092-6.625-35.821-6.606-33.55-6.606Z" transform="translate(76.1 51.513)"/></svg>