<svg xmlns="http://www.w3.org/2000/svg" width="142" height="142" viewBox="0 0 142 142"><defs><style>.a{fill:#fff;stroke:#d4d6d6;}.b{mix-blend-mode:darken;isolation:isolate;}.c{fill:#269dd8;}.d{fill:#f6921e;}.e{fill:#4bb649;}.f{fill:#d91c5c;}.g{stroke:none;}.h{fill:none;}</style></defs><g transform="translate(-173 -4851)"><g class="a" transform="translate(173 4851)"><rect class="g" width="142" height="142" rx="10"/><rect class="h" x="0.5" y="0.5" width="141" height="141" rx="9.5"/></g><g transform="translate(50.995 4417.534)"><g transform="translate(175.495 447.133)"><g class="b" transform="translate(0 14.639)"><path class="c" d="M244.964,497.583c8.861-7.787,10.069-13.889,14.079-10.246,24.07,21.864,32.053,6.447,33.946,19.263.558,3.766,2.888,10.05-.034,13.324-2.227,2.5-6.027,1.689-8.941,1.453-15.814-1.286-24.487-6.419-37.278-14.385C240.544,503.135,241.179,500.911,244.964,497.583Z" transform="translate(-242.097 -486.256)"/></g><g transform="translate(25.389)"><path class="c" d="M313.087,465.438a10.722,10.722,0,1,1,15.163,0A10.722,10.722,0,0,1,313.087,465.438Z" transform="translate(-309.947 -447.133)"/></g></g><g transform="translate(200.003 486.955)"><g class="b"><path class="d" d="M331.7,556.423c7.789,8.862,13.887,10.072,10.247,14.079-21.865,24.068-6.447,32.054-19.263,33.948-3.766.555-10.052,2.887-13.325-.035-2.493-2.228-1.687-6.029-1.451-8.941,1.287-15.814,6.42-24.488,14.386-37.279C326.146,552,328.369,552.637,331.7,556.423Z" transform="translate(-307.591 -553.555)"/></g><g transform="translate(28.628 25.39)"><path class="d" d="M387.238,624.547a10.722,10.722,0,1,1,0,15.163A10.723,10.723,0,0,1,387.238,624.547Z" transform="translate(-384.098 -621.407)"/></g></g><g transform="translate(157.951 511.463)"><g class="b" transform="translate(0 0)"><path class="e" d="M244.645,643.157c-8.862,7.788-10.072,13.889-14.079,10.246-24.07-21.864-32.054-6.446-33.947-19.262-.558-3.767-2.888-10.051.034-13.324,2.227-2.5,6.029-1.689,8.942-1.452,15.812,1.286,24.487,6.419,37.276,14.385C249.065,637.606,248.429,639.83,244.645,643.157Z" transform="translate(-195.211 -619.051)"/></g><g transform="translate(5.468 28.628)"><path class="e" d="M228.127,698.7a10.722,10.722,0,1,1-15.163,0A10.722,10.722,0,0,1,228.127,698.7Z" transform="translate(-209.824 -695.558)"/></g></g><g transform="translate(135.672 469.411)"><g class="b" transform="translate(14.64)"><path class="f" d="M186.122,556.1c-7.788-8.862-13.888-10.07-10.246-14.079,21.864-24.068,6.447-32.053,19.263-33.947,3.766-.558,10.05-2.888,13.325.034,2.494,2.227,1.687,6.028,1.45,8.941-1.286,15.813-6.419,24.486-14.385,37.278C191.674,560.524,189.452,559.891,186.122,556.1Z" transform="translate(-174.796 -506.67)"/></g><g transform="translate(0 5.469)"><path class="f" d="M153.977,539.589a10.722,10.722,0,1,1,0-15.163A10.721,10.721,0,0,1,153.977,539.589Z" transform="translate(-135.672 -521.286)"/></g></g></g></g></svg>