<svg xmlns="http://www.w3.org/2000/svg" xmlns:xlink="http://www.w3.org/1999/xlink" width="142" height="142" viewBox="0 0 142 142"><defs><style>.a{fill:#fff;stroke:#d4d6d6;}.b{fill:url(#a);}.c{fill:url(#b);}.d{fill:url(#c);}.e{fill:url(#d);}.f{stroke:none;}.g{fill:none;}</style><radialGradient id="a" cx="0.096" cy="0.061" r="0.712" gradientTransform="translate(-0.377) scale(1.753 1)" gradientUnits="objectBoundingBox"><stop offset="0.078" stop-color="#dc5838"/><stop offset="0.189" stop-color="#d85238"/><stop offset="0.326" stop-color="#cf4338"/><stop offset="0.475" stop-color="#c02b39"/><stop offset="0.632" stop-color="#ac0839"/><stop offset="0.667" stop-color="#a7003a"/></radialGradient><radialGradient id="b" cx="0.104" cy="0.163" r="0.576" gradientTransform="translate(-0.402) scale(1.805 1)" xlink:href="#a"/><radialGradient id="c" cx="0.232" cy="0.26" r="0.774" gradientTransform="translate(0.019) scale(0.963 1)" gradientUnits="objectBoundingBox"><stop offset="0.004" stop-color="#d81988"/><stop offset="0.144" stop-color="#d11a87"/><stop offset="0.332" stop-color="#c01d84"/><stop offset="0.549" stop-color="#a42280"/><stop offset="0.785" stop-color="#7d297a"/><stop offset="1" stop-color="#533174"/></radialGradient><radialGradient id="d" cx="0.165" cy="0.086" r="0.636" gradientTransform="translate(-0.451) scale(1.902 1)" gradientUnits="objectBoundingBox"><stop offset="0.333" stop-color="#e9ad2b"/><stop offset="0.336" stop-color="#e8ac2b"/><stop offset="0.503" stop-color="#e1892e"/><stop offset="0.66" stop-color="#db7130"/><stop offset="0.804" stop-color="#d86232"/><stop offset="0.922" stop-color="#d75d33"/></radialGradient></defs><g transform="translate(-170 -4575)"><g class="a" transform="translate(170 4575)"><rect class="f" width="142" height="142" rx="10"/><rect class="g" x="0.5" y="0.5" width="141" height="141" rx="9.5"/></g><g transform="translate(-323.412 4311.559)"><path class="b" d="M544.823,361.407s.454,13.5.687,20.04H547.9c.233-6.537.688-20.04.688-20.04a31.479,31.479,0,0,0,9.666-6.9c-.126-2.114-.26-3.8-.368-5.012-10.865-5.787-16.471-13.849-19.247-21.626h-10.25C527.283,332.827,524.992,352.044,544.823,361.407Z"/><path class="c" d="M570.912,349.5c-.124,1.368-.278,3.367-.416,5.89a32.019,32.019,0,0,0,8.793,6.014s.459,13.475.694,20.04h2.378c.235-6.537.689-20.04.689-20.04,19.829-9.363,17.539-28.58,16.437-33.535h-9.328C587.385,335.649,581.779,343.711,570.912,349.5Z"/><path class="d" d="M564.5,274.441a55.075,55.075,0,0,0-22.138,105.508V368.776a45.081,45.081,0,1,1,42.981.706V380.5A55.077,55.077,0,0,0,564.5,274.441Z"/><path class="e" d="M587.425,304.471H541.367c-1.279,5.768-3.825,26.888,15.571,39.335l.058-1.5.1-3.4.194-6.217-3.286-4.994,1.408-15.531h.824c-.012,6.719-.2,12.125.062,12.13s.883-5.412.9-12.13h.749c-.005,6.717.2,12.133.468,12.13s.481-5.412.5-12.13h.662c.005,6.72.692,12.135.957,12.134s0-5.414.01-12.134h.7l1.317,15.543-3.3,4.985.52,6.365.248,3.039.239,3.648c.576.3,1.152.6,1.759.888,0,0,1.04,31.88,1.04,46.25a15.794,15.794,0,0,1-.188,2.5h3.021a15.905,15.905,0,0,1-.189-2.5c0-14.37,1.045-46.25,1.045-46.25.388-.184.75-.379,1.125-.568l.154-3.769.15-2.687.455-8.193c-2.49-.509-4.384-3.018-4.418-7.786-.04-5.4,2.326-11.643,5.295-11.663s5.424,6.185,5.461,11.583c.035,4.771-1.83,7.31-4.309,7.853l.555,7.958.213,3.039.083,1.622C591.285,331.6,588.714,310.272,587.425,304.471Z"/></g></g></svg>