<svg xmlns="http://www.w3.org/2000/svg" xmlns:xlink="http://www.w3.org/1999/xlink" width="142" height="142" viewBox="0 0 142 142"><defs><style>.a{fill:#fff;stroke:#d4d6d6;}.b{fill:url(#a);}.c{fill:url(#b);}.d{stroke:none;}.e{fill:none;}</style><linearGradient id="a" x1="-0.482" y1="1.445" x2="1.289" y2="-0.166" gradientUnits="objectBoundingBox"><stop offset="0" stop-color="#488334"/><stop offset="1" stop-color="#90e545"/></linearGradient><linearGradient id="b" y1="0.5" x2="1" y2="0.5" gradientUnits="objectBoundingBox"><stop offset="0" stop-color="#14d0ef"/><stop offset="1" stop-color="#9d15ed"/></linearGradient></defs><g transform="translate(-170 -4277)"><g class="a" transform="translate(170 4277)"><rect class="d" width="142" height="142" rx="10"/><rect class="e" x="0.5" y="0.5" width="141" height="141" rx="9.5"/></g><g transform="translate(-129.303 4036.955)"><path class="b" d="M364.787,303.354l17.773,17.773L364.787,338.9l-17.773-17.773Zm23.4-10.55H373.986v14.205h14.206ZM376.1,279.274v9.98h9.98v-9.98Zm15.536-11.823H385.8v5.831h5.832Zm10.434,2.916h4v-4.005h-4Zm-6.006-10.322v2.9h2.9v-2.9Zm8.008,27.355h6.271v-6.272h-6.271Zm-1.654,5.4H390.56V304.66h11.857Zm-10.254-6.522h8.651v-8.651h-8.651Z"/><path class="c" d="M401.7,307.553H390.56v4.066l9.507,9.507-35.281,35.281-35.281-35.281,35.281-35.281,5.047,5.047v-.057h3.32V279.01l-8.367-8.367L314.3,321.126l50.483,50.485,50.485-50.485Z"/></g></g></svg>