<svg xmlns="http://www.w3.org/2000/svg" xmlns:xlink="http://www.w3.org/1999/xlink" width="142" height="142" viewBox="0 0 142 142"><defs><style>.a{fill:#fff;stroke:#d4d6d6;}.b{fill:url(#a);}.c{fill:url(#b);}.d{stroke:none;}.e{fill:none;}</style><linearGradient id="a" y1="0.5" x2="1" y2="0.5" gradientUnits="objectBoundingBox"><stop offset="0" stop-color="#edd12b"/><stop offset="1" stop-color="#ed3550"/></linearGradient><linearGradient id="b" x1="0.894" y1="0.067" x2="0.266" y2="0.906" gradientUnits="objectBoundingBox"><stop offset="0" stop-color="#14d0ef"/><stop offset="1" stop-color="#9d15ed"/></linearGradient></defs><g transform="translate(-181 -3972)"><g class="a" transform="translate(181 3972)"><rect class="d" width="142" height="142" rx="10"/><rect class="e" x="0.5" y="0.5" width="141" height="141" rx="9.5"/></g><g transform="translate(120.941 3918.796)"><path class="b" d="M187.968,111.93a8.408,8.408,0,0,0-8.066,6.082H146.321l-9.346-9.345h22.537a8.4,8.4,0,1,0,0-4.632H132.343l-6.159-6.159-22.453,22.452,22.453,22.453,6.16-6.16h27.168a8.4,8.4,0,1,0,0-4.632H136.976l9.345-9.345H179.9a8.4,8.4,0,1,0,8.066-10.714Zm-20.389-9.346a3.767,3.767,0,1,1-3.767,3.767A3.771,3.771,0,0,1,167.579,102.584Zm0,27.955a3.767,3.767,0,1,1-3.767,3.766A3.77,3.77,0,0,1,167.579,130.539Zm-41.395,5.693-15.9-15.9,15.9-15.9,15.9,15.9ZM187.968,124.1a3.767,3.767,0,1,1,3.767-3.767A3.771,3.771,0,0,1,187.968,124.1Z"/><path class="c" d="M158.9,139.732H143.621l-17.437,17.437-36.841-36.84,36.841-36.841,17.437,17.438H158.9L126.184,68.2,74.059,120.328l52.125,52.124Z"/></g></g></svg>