<?xml version="1.0" encoding="utf-8"?>
<!-- Generator: Adobe Illustrator 21.0.0, SVG Export Plug-In . SVG Version: 6.00 Build 0)  -->
<svg version="1.1" id="Layer_1" xmlns="http://www.w3.org/2000/svg" xmlns:xlink="http://www.w3.org/1999/xlink" x="0px" y="0px"
	 viewBox="0 0 595.4 841.7" style="enable-background:new 0 0 595.4 841.7;" xml:space="preserve">
<style type="text/css">
	.st0{fill:#01ACEA;}
	.st1{fill:#73469B;}
	.st2{fill:#FFF9F9;}
	.st3{fill:none;}
</style>
<g>
	<path class="st0" d="M169.4,381.3H141v47.3V459l15.3-71.3C157.2,381.4,169.4,381.3,169.4,381.3z"/>
	<path class="st1" d="M169.4,381.3c-4.7,0.2-7.5,1.4-9.2,2.7c-1.8,1.3-1.8,3.9,0,5.2c3.9,2.9,11.5,5.6,11.5,5.6L141,459h25v-30.4
		h3.4c13.1,0,23.7-10.6,23.7-23.7v0C193,391.9,182.4,381.3,169.4,381.3z"/>
	<path class="st2" d="M160.1,389.2c-1.7-1.3-1.7-3.9,0-5.2c1.7-1.2,4.6-2.5,9.2-2.7c0,0-12.1,0.2-13.1,6.4L141,459l30.6-64.2
		C171.6,394.8,164,392.1,160.1,389.2z"/>
</g>
<g>
	<path class="st0" d="M381.1,437l-7.4,22H372l-6.8-19.7l-6.8,19.7h-1.7l-7.5-22h1.7l6.7,19.8l6.9-19.8h1.5l6.8,19.8l6.7-19.8H381.1z
		"/>
	<path class="st0" d="M383.4,448c0-6.4,4.9-11.1,11.4-11.1c6.5,0,11.4,4.7,11.4,11.1c0,6.4-4.9,11.1-11.4,11.1
		C388.3,459.1,383.4,454.4,383.4,448z M404.6,448c0-5.6-4.2-9.7-9.8-9.7c-5.6,0-9.8,4.1-9.8,9.7c0,5.6,4.2,9.7,9.8,9.7
		C400.4,457.7,404.6,453.5,404.6,448z"/>
	<path class="st0" d="M427.1,459l-5.2-7.3c-0.7,0.1-1.4,0.2-2.1,0.2h-6.3v7.2h-1.6v-22h7.9c5.5,0,8.9,2.8,8.9,7.4
		c0,3.5-1.9,5.9-5.1,6.9l5.5,7.7H427.1z M419.7,450.4c4.7,0,7.2-2.2,7.2-6c0-3.8-2.5-6-7.2-6h-6.3v11.9H419.7z"/>
	<path class="st0" d="M434.4,437h8.7c7,0,11.7,4.6,11.7,11c0,6.4-4.7,11-11.7,11h-8.7V437z M443,457.5c6.2,0,10.2-4,10.2-9.5
		c0-5.6-4-9.5-10.2-9.5h-7v19.1H443z"/>
</g>
<g>
	<path class="st0" d="M273.2,412v17.2h-13.5v-17.4l-18.3-30.5h14.3l11.4,19l11.4-19h13.1L273.2,412z"/>
	<path class="st1" d="M358.1,399c0,10.9-8.2,17.7-21.3,17.7h-8.3v12.5h-13.5v-47.9h21.9C349.9,381.3,358.1,388.1,358.1,399z
		 M344.4,399c0-4.4-2.8-7-8.4-7h-7.5v14h7.5C341.6,406,344.4,403.4,344.4,399z"/>
	<path class="st1" d="M431.6,416.4h-7.4v12.7h-13.5v-47.9h21.9c13.1,0,21.3,6.8,21.3,17.7c0,7-3.4,12.2-9.4,15.1l10.3,15.1h-14.5
		L431.6,416.4z M431.7,392h-7.5v14h7.5c5.6,0,8.4-2.6,8.4-7C440.2,394.6,437.3,392,431.7,392z"/>
	<polygon class="st1" points="403.1,409.9 403.1,399.8 379.5,399.8 364.7,399.8 364.7,409.9 379.5,409.9 	"/>
	<polygon class="st0" points="403.1,391.7 403.1,381.3 364.7,381.3 364.7,391.7 378.4,391.7 	"/>
	<polygon class="st1" points="378.1,418.7 364.7,418.7 364.7,429.2 403.1,429.2 403.1,418.7 	"/>
	<polygon class="st3" points="224.9,409.9 218.8,394.6 224.9,409.9 	"/>
	<polygon class="st3" points="212.6,409.9 212.6,409.9 218.8,394.6 	"/>
	<polygon class="st0" points="225.5,381.3 212.2,381.3 191.1,429.2 204.9,429.2 212.6,409.9 212.6,409.9 218.8,394.6 224.9,409.9 
		224.9,409.9 232.7,429.2 246.8,429.2 	"/>
	<polygon class="st1" points="221.8,419.5 218.8,411.9 215.7,419.5 211.8,429.2 225.7,429.2 	"/>
</g>
<g>
	<rect x="191.1" y="447.5" class="st0" width="154.5" height="1"/>
</g>
</svg>
